<svg width="46" height="45" viewBox="0 0 46 45" fill="none" xmlns="http://www.w3.org/2000/svg">
<path d="M23.9427 1.50818C28.3781 1.63199 32.6603 3.15753 36.1749 5.86592C39.6896 8.57431 42.256 12.3264 43.5061 16.5838C44.7561 20.8412 44.6255 25.3851 43.133 29.5637C41.6406 33.7423 38.8629 37.3407 35.1985 39.8428C31.5341 42.3449 27.1713 43.6219 22.7361 43.4908C18.301 43.3597 14.0213 41.8271 10.5111 39.113C7.0009 36.3988 4.44063 32.6425 3.19759 28.3831C1.95454 24.1236 2.09261 19.5799 3.59198 15.4038" stroke="#FF8D30" stroke-width="3" stroke-linecap="round"/>
<path d="M23.3607 25.7971C23.3607 27.3011 22.7927 28.5411 21.6567 29.5171C20.5367 30.4931 19.0967 30.9811 17.3367 30.9811C15.5927 30.9811 14.1447 30.5011 12.9927 29.5411C11.8567 28.5811 11.2887 27.3651 11.2887 25.8931C11.2887 24.2131 12.0807 22.8611 13.6647 21.8371C12.4807 20.9411 11.8887 19.7731 11.8887 18.3331C11.8887 16.9091 12.4087 15.7731 13.4487 14.9251C14.4887 14.0771 15.7767 13.6531 17.3127 13.6531C18.8487 13.6531 20.1367 14.0851 21.1767 14.9491C22.2167 15.7971 22.7367 16.8931 22.7367 18.2371C22.7367 19.6131 22.1447 20.7571 20.9607 21.6691C22.5607 22.7251 23.3607 24.1011 23.3607 25.7971ZM19.4487 18.3091C19.4487 17.7971 19.2407 17.3731 18.8247 17.0371C18.4247 16.7011 17.9287 16.5331 17.3367 16.5331C16.7287 16.5331 16.2167 16.7011 15.8007 17.0371C15.4007 17.3731 15.2007 17.7971 15.2007 18.3091C15.2007 18.8371 15.4087 19.2851 15.8247 19.6531C16.2407 20.0051 16.7607 20.2451 17.3847 20.3731C17.9927 20.2291 18.4887 19.9731 18.8727 19.6051C19.2567 19.2371 19.4487 18.8051 19.4487 18.3091ZM20.0247 25.7971C20.0247 25.1571 19.7607 24.6291 19.2327 24.2131C18.7207 23.7811 18.0647 23.4771 17.2647 23.3011C16.4807 23.4611 15.8407 23.7651 15.3447 24.2131C14.8647 24.6451 14.6247 25.1731 14.6247 25.7971C14.6247 26.4371 14.8807 26.9731 15.3927 27.4051C15.9207 27.8371 16.5687 28.0531 17.3367 28.0531C18.1047 28.0531 18.7447 27.8371 19.2567 27.4051C19.7687 26.9571 20.0247 26.4211 20.0247 25.7971ZM32.5056 18.9571C32.5056 17.2131 31.7696 16.3411 30.2976 16.3411C28.8256 16.3411 28.0896 17.2131 28.0896 18.9571V25.7251C28.0896 26.4291 28.2816 26.9891 28.6656 27.4051C29.0496 27.8211 29.5936 28.0291 30.2976 28.0291C31.0016 28.0291 31.5456 27.8211 31.9296 27.4051C32.3136 26.9891 32.5056 26.4291 32.5056 25.7251V18.9571ZM26.1456 15.0211C27.0736 13.9491 28.4576 13.4131 30.2976 13.4131C32.1376 13.4131 33.5216 13.9491 34.4496 15.0211C35.3776 16.0771 35.8416 17.4451 35.8416 19.1251V25.7251C35.8416 27.2451 35.3456 28.5011 34.3536 29.4931C33.3776 30.4851 32.0256 30.9811 30.2976 30.9811C28.5696 30.9811 27.2096 30.4851 26.2176 29.4931C25.2416 28.5011 24.7536 27.2451 24.7536 25.7251V19.1251C24.7536 17.4451 25.2176 16.0771 26.1456 15.0211Z" fill="#1D2E5B"/>
</svg>
