<svg width="46" height="45" viewBox="0 0 46 45" fill="none" xmlns="http://www.w3.org/2000/svg">
<path d="M23.3564 1.5C26.1142 1.5 28.845 2.04318 31.3928 3.09853C33.9406 4.15388 36.2557 5.70073 38.2057 7.65076C40.1557 9.60079 41.7026 11.9158 42.7579 14.4636C43.8133 17.0115 44.3564 19.7422 44.3564 22.5" stroke="#FF8D30" stroke-width="3" stroke-linecap="round"/>
<path d="M21.9527 29.488C21.9527 28.648 21.2327 28 20.2967 28H14.9447C16.2407 26.224 18.3527 24.736 19.9607 23.056C21.0647 21.904 21.8567 20.56 21.8567 18.52C21.8567 15.808 19.8167 13.648 16.3127 13.648C14.3687 13.648 10.9367 14.392 10.9367 16.144C10.9367 17.032 11.7527 17.608 12.5687 17.608C13.2647 17.608 13.7447 17.176 14.2727 16.96C14.8487 16.72 15.4727 16.576 16.2887 16.576C17.7767 16.576 18.5447 17.536 18.5447 18.76C18.5447 20.536 16.6247 21.904 15.3047 23.104C13.6007 24.64 11.8487 26.176 10.8887 28.288C10.7207 28.648 10.6967 29.08 10.6967 29.416C10.6967 30.304 11.3927 31 12.4007 31H20.2967C21.2327 31 21.9527 30.328 21.9527 29.488ZM34.7696 25.36C34.7696 21.976 32.4656 19.96 29.1776 19.96C28.6496 19.96 28.0976 20.008 27.6176 20.152L27.7616 17.032H32.2496C33.1136 17.032 34.0736 16.648 34.0736 15.568C34.0736 14.464 33.1136 14.056 32.2496 14.056H26.4656C25.5776 14.056 24.6656 14.656 24.6416 15.664L24.4016 22.288C24.3776 23.248 25.1216 23.92 26.0816 23.92C26.8496 23.92 27.8096 23.176 27.8096 23.176C28.2176 22.96 28.6016 22.864 29.1296 22.864C30.4256 22.864 31.4336 23.68 31.4336 25.456C31.4336 26.872 30.7856 28.288 28.6496 28.288C27.0416 28.288 26.3696 27.4 25.4336 27.4C24.5216 27.4 23.8256 28.096 23.8256 28.888C23.8256 30.88 28.0736 31.192 29.2016 31.192C33.1376 31.192 34.7696 28.144 34.7696 25.36Z" fill="#1D2E5B"/>
</svg>
