<svg width="46" height="47" viewBox="0 0 46 47" fill="none" xmlns="http://www.w3.org/2000/svg">
<path d="M22.3564 1.60522C28.0586 1.60522 33.5272 3.8704 37.5592 7.90243C41.5913 11.9345 43.8564 17.4031 43.8564 23.1052C43.8564 28.8074 41.5913 34.276 37.5592 38.308C33.5272 42.34 28.0586 44.6052 22.3565 44.6052" stroke="#FF8D30" stroke-width="3" stroke-linecap="round"/>
<path d="M22.8087 26.9652C22.8087 28.5332 22.3367 29.9012 21.3927 31.0692C20.4487 32.2212 19.0647 32.7972 17.2407 32.7972C16.8567 32.7972 16.4087 32.7652 15.8967 32.7012C15.3847 32.6532 14.8007 32.5572 14.1447 32.4132C13.5047 32.2532 12.9607 32.0132 12.5127 31.6932C12.0807 31.3572 11.8647 30.9572 11.8647 30.4932C11.8647 30.0932 12.0167 29.7492 12.3207 29.4612C12.6407 29.1572 13.0247 29.0052 13.4727 29.0052C13.7287 29.0052 14.1767 29.1572 14.8167 29.4612C15.4727 29.7492 16.0967 29.8932 16.6887 29.8932C17.6807 29.8932 18.3927 29.6292 18.8247 29.1012C19.2567 28.5572 19.4727 27.8772 19.4727 27.0612C19.4727 26.2132 19.2567 25.5732 18.8247 25.1412C18.4087 24.6932 17.8567 24.4692 17.1687 24.4692C16.6887 24.4692 16.2487 24.5732 15.8487 24.7812C15.2087 25.2772 14.6327 25.5252 14.1207 25.5252C13.6407 25.5252 13.2327 25.3732 12.8967 25.0692C12.5767 24.7652 12.4247 24.3732 12.4407 23.8932L12.6807 17.2692C12.6967 16.7892 12.8807 16.4052 13.2327 16.1172C13.6007 15.8132 14.0247 15.6612 14.5047 15.6612H20.2887C20.7847 15.6612 21.2087 15.7892 21.5607 16.0452C21.9287 16.2852 22.1127 16.6612 22.1127 17.1732C22.1127 17.6692 21.9287 18.0372 21.5607 18.2772C21.2087 18.5172 20.7847 18.6372 20.2887 18.6372H15.8007L15.6567 21.7572C16.0887 21.6292 16.6087 21.5652 17.2167 21.5652C18.8807 21.5652 20.2247 22.0532 21.2487 23.0292C22.2887 23.9892 22.8087 25.3012 22.8087 26.9652ZM32.5056 20.7972C32.5056 19.0532 31.7696 18.1812 30.2976 18.1812C28.8256 18.1812 28.0896 19.0532 28.0896 20.7972V27.5652C28.0896 28.2692 28.2816 28.8292 28.6656 29.2452C29.0496 29.6612 29.5936 29.8692 30.2976 29.8692C31.0016 29.8692 31.5456 29.6612 31.9296 29.2452C32.3136 28.8292 32.5056 28.2692 32.5056 27.5652V20.7972ZM26.1456 16.8612C27.0736 15.7892 28.4576 15.2532 30.2976 15.2532C32.1376 15.2532 33.5216 15.7892 34.4496 16.8612C35.3776 17.9172 35.8416 19.2852 35.8416 20.9652V27.5652C35.8416 29.0852 35.3456 30.3412 34.3536 31.3332C33.3776 32.3252 32.0256 32.8212 30.2976 32.8212C28.5696 32.8212 27.2096 32.3252 26.2176 31.3332C25.2416 30.3412 24.7536 29.0852 24.7536 27.5652V20.9652C24.7536 19.2852 25.2176 17.9172 26.1456 16.8612Z" fill="#1D2E5B"/>
</svg>
