<svg width="46" height="45" viewBox="0 0 46 45" fill="none" xmlns="http://www.w3.org/2000/svg">
<path d="M24.3177 1.52201C29.7117 1.76918 34.8032 4.08455 38.5347 7.98727C42.2663 11.89 44.3512 17.0801 44.3564 22.4797C44.3617 27.8793 42.2868 33.0735 38.5627 36.9834C34.8387 40.8933 29.7517 43.2185 24.3582 43.4761C18.9648 43.7337 13.6793 41.9038 9.59961 38.3666C5.51991 34.8294 2.95949 29.8566 2.4501 24.4811C1.94071 19.1056 3.52151 13.7404 6.86418 9.49979C10.2069 5.25923 15.0545 2.46918 20.4004 1.7091" stroke="#FF8D30" stroke-width="3" stroke-linecap="round"/>
<path d="M15.7607 28.312C16.8007 28.328 17.5127 28.008 17.8967 27.352C18.2967 26.68 18.5447 25.68 18.6407 24.352C17.8407 24.832 16.9767 25.072 16.0487 25.072C14.4967 25.072 13.2007 24.6 12.1607 23.656C11.1207 22.696 10.6007 21.344 10.6007 19.6C10.6007 17.952 11.0967 16.584 12.0887 15.496C13.0807 14.408 14.4967 13.864 16.3367 13.864C17.4087 13.864 18.3287 14.064 19.0967 14.464C19.8647 14.864 20.4567 15.448 20.8727 16.216C21.3047 16.984 21.6087 17.848 21.7847 18.808C21.9767 19.768 22.0727 20.872 22.0727 22.12C22.0727 25.08 21.5687 27.336 20.5607 28.888C19.5687 30.44 18.0647 31.216 16.0487 31.216C15.7127 31.216 15.3447 31.192 14.9447 31.144C14.5607 31.112 14.1047 31.04 13.5767 30.928C13.0647 30.8 12.6247 30.6 12.2567 30.328C11.9047 30.056 11.7047 29.728 11.6567 29.344C11.6087 28.96 11.7207 28.616 11.9927 28.312C12.2807 28.008 12.6647 27.856 13.1447 27.856C13.3847 27.856 13.7767 27.928 14.3207 28.072C14.8807 28.216 15.3607 28.296 15.7607 28.312ZM18.7127 21.256V20.968C18.7127 18.264 17.8807 16.912 16.2167 16.912C15.4167 16.912 14.8327 17.168 14.4647 17.68C14.1127 18.176 13.9367 18.808 13.9367 19.576C13.9367 21.24 14.7207 22.072 16.2887 22.072C17.3127 22.072 18.1207 21.8 18.7127 21.256ZM28.7216 28.312C29.7616 28.328 30.4736 28.008 30.8576 27.352C31.2576 26.68 31.5056 25.68 31.6016 24.352C30.8016 24.832 29.9376 25.072 29.0096 25.072C27.4576 25.072 26.1616 24.6 25.1216 23.656C24.0816 22.696 23.5616 21.344 23.5616 19.6C23.5616 17.952 24.0576 16.584 25.0496 15.496C26.0416 14.408 27.4576 13.864 29.2976 13.864C30.3696 13.864 31.2896 14.064 32.0576 14.464C32.8256 14.864 33.4176 15.448 33.8336 16.216C34.2656 16.984 34.5696 17.848 34.7456 18.808C34.9376 19.768 35.0336 20.872 35.0336 22.12C35.0336 25.08 34.5296 27.336 33.5216 28.888C32.5296 30.44 31.0256 31.216 29.0096 31.216C28.6736 31.216 28.3056 31.192 27.9056 31.144C27.5216 31.112 27.0656 31.04 26.5376 30.928C26.0256 30.8 25.5856 30.6 25.2176 30.328C24.8656 30.056 24.6656 29.728 24.6176 29.344C24.5696 28.96 24.6816 28.616 24.9536 28.312C25.2416 28.008 25.6256 27.856 26.1056 27.856C26.3456 27.856 26.7376 27.928 27.2816 28.072C27.8416 28.216 28.3216 28.296 28.7216 28.312ZM31.6736 21.256V20.968C31.6736 18.264 30.8416 16.912 29.1776 16.912C28.3776 16.912 27.7936 17.168 27.4256 17.68C27.0736 18.176 26.8976 18.808 26.8976 19.576C26.8976 21.24 27.6816 22.072 29.2496 22.072C30.2736 22.072 31.0816 21.8 31.6736 21.256Z" fill="#1D2E5B"/>
</svg>
