<svg width="18" height="18" viewBox="0 0 18 18" fill="none" xmlns="http://www.w3.org/2000/svg">
<path d="M8.97412 7.4239C8.97412 7.6129 9.12775 7.7614 9.3155 7.7614C9.70468 7.7614 10.0187 8.07527 10.0187 8.45665C10.0187 8.64227 10.1724 8.79415 10.3601 8.79415C10.5479 8.79415 10.7015 8.64227 10.7015 8.45665C10.7015 7.70065 10.0802 7.0864 9.3155 7.0864C9.12775 7.0864 8.97412 7.23828 8.97412 7.4239ZM14.5318 8.79415C14.723 8.79415 14.8732 8.64227 14.8732 8.45665C14.8732 5.4259 12.3811 2.96216 9.3155 2.96216C9.12775 2.96216 8.97412 3.11402 8.97412 3.29966C8.97412 3.48528 9.12775 3.63716 9.3155 3.63716C12.0056 3.63716 14.1904 5.80052 14.1904 8.45665C14.1904 8.64227 14.344 8.79415 14.5318 8.79415Z" fill="#161C35"/>
<path d="M12.1047 8.45666C12.1047 8.64228 12.2583 8.79416 12.446 8.79416C12.6338 8.79416 12.7874 8.64228 12.7874 8.45666C12.7874 6.56329 11.2307 5.02429 9.3156 5.02429C9.12785 5.02429 8.97422 5.17617 8.97422 5.36179C8.97422 5.55079 9.12785 5.69929 9.3156 5.69929C10.8552 5.69929 12.1047 6.93791 12.1047 8.45666ZM9.3156 0.900024C9.12785 0.900024 8.97422 1.0519 8.97422 1.23752C8.97422 1.42317 9.12785 1.57502 9.3156 1.57502C13.1561 1.57502 16.2797 4.66316 16.2797 8.45666C16.2797 8.64228 16.43 8.79416 16.6211 8.79416C16.8089 8.79416 16.9625 8.64228 16.9625 8.45666C16.9625 4.28854 13.5316 0.900024 9.3156 0.900024ZM12.6509 12.0139L12.2037 12.2535C11.4492 12.6619 10.8621 13.7813 9.93111 12.9375L7.50006 10.5L5.39999 8.45666C4.3449 7.12353 5.5263 6.80628 5.93936 6.05704L6.18174 5.61829C6.45484 5.11878 6.55383 4.55853 6.47191 3.99827C6.3934 3.43803 6.13736 2.9284 5.7277 2.5234C5.2293 2.03066 4.56703 1.76067 3.86037 1.76067C3.15371 1.76067 2.48802 2.03066 1.9896 2.5234L1.81551 2.69891C0.893782 3.61016 0.787955 5.17952 1.51509 7.12353C2.20125 8.97978 3.58385 10.9913 5.39999 12.7868C8.16857 15.5239 11.2512 17.1 13.4634 17.1C14.3373 17.1 15.0781 16.8537 15.6038 16.3339L15.7813 16.1584C16.2763 15.669 16.5528 15.0143 16.5563 14.3089C16.5528 13.6204 16.2695 12.9454 15.7813 12.4628C14.9586 11.6494 13.6716 11.4672 12.6509 12.0139Z" fill="#161C35"/>
</svg>
