<svg width="16" height="14" viewBox="0 0 16 14" fill="none" xmlns="http://www.w3.org/2000/svg">
<path d="M1.25925 2.60029L7.25925 6.36069C7.46085 6.48669 7.72165 6.54642 7.98405 6.54642C8.24645 6.54642 8.50725 6.48669 8.70885 6.36069L14.7088 2.60029C15.1 2.35482 15.4697 1.40002 14.7521 1.40002H1.21685C0.49925 1.40002 0.86885 2.35482 1.25925 2.60029ZM14.8905 4.65642L8.70885 8.41496C8.43685 8.58109 8.24645 8.60069 7.98405 8.60069C7.72165 8.60069 7.53125 8.58109 7.25925 8.41496C6.98725 8.24882 1.55285 4.92522 1.10885 4.65549C0.79685 4.46509 0.80005 4.68816 0.80005 4.85989V11.6667C0.80005 12.0587 1.25285 12.6 1.60005 12.6H14.4001C14.7473 12.6 15.2001 12.0587 15.2001 11.6667V4.86082C15.2001 4.68909 15.2033 4.46602 14.8905 4.65642Z" fill="#161C35"/>
</svg>
