<svg width="181" height="112" viewBox="0 0 181 112" fill="none" xmlns="http://www.w3.org/2000/svg">
<circle cx="3" cy="12" r="3" fill="#1D2E5B"/>
<path d="M51.9 2.88C52.1133 2.88 52.3 2.96 52.46 3.12C52.62 3.26667 52.7 3.44667 52.7 3.66V15.44H53.2C53.4267 15.44 53.62 15.54 53.78 15.74C53.94 15.9267 54.02 16.1667 54.02 16.46V19.02C54.02 19.2333 53.94 19.4133 53.78 19.56C53.62 19.72 53.4267 19.8 53.2 19.8C52.9867 19.8 52.8 19.7267 52.64 19.58C52.4933 19.4333 52.42 19.2467 52.42 19.02V17H44.1V19.02C44.1 19.2467 44.02 19.4333 43.86 19.58C43.7133 19.7267 43.5333 19.8 43.32 19.8C43.1067 19.8 42.92 19.7267 42.76 19.58C42.6133 19.4333 42.54 19.2467 42.54 19.02V16.46C42.54 16.1667 42.6133 15.9267 42.76 15.74C42.9067 15.54 43.0933 15.44 43.32 15.44H43.9C44.5267 14.5733 44.9067 12.8067 45.04 10.14L45.34 3.66C45.3533 3.39333 45.44 3.2 45.6 3.08C45.76 2.94667 45.9267 2.88 46.1 2.88H51.9ZM46.64 10.14C46.5333 12.5 46.14 14.2667 45.46 15.44H51.1V4.44H46.84L46.64 10.14ZM59.6986 13.82L58.8586 16.6C58.8053 16.7733 58.6986 16.9133 58.5386 17.02C58.3919 17.14 58.2453 17.2 58.0986 17.2C57.8586 17.2 57.6586 17.1267 57.4986 16.98C57.3386 16.8333 57.2586 16.64 57.2586 16.4C57.2586 16.28 57.2719 16.18 57.2986 16.1L61.1986 3.76C61.4119 3.05333 61.7586 2.7 62.2386 2.7C62.7186 2.7 63.0719 3.05333 63.2986 3.76L67.1986 16.1C67.2253 16.18 67.2386 16.28 67.2386 16.4C67.2386 16.64 67.1586 16.8333 66.9986 16.98C66.8386 17.1267 66.6386 17.2 66.3986 17.2C66.2386 17.2 66.0786 17.14 65.9186 17.02C65.7719 16.9133 65.6719 16.7733 65.6186 16.6L64.7586 13.82H59.6986ZM62.2386 5.48L60.1786 12.26H64.2986L62.2386 5.48ZM72.4708 16.4V4.46H69.7508C69.5241 4.46 69.3308 4.38667 69.1708 4.24C69.0241 4.08 68.9508 3.89333 68.9508 3.68C68.9508 3.49333 69.0308 3.32 69.1908 3.16C69.3508 2.98667 69.5374 2.9 69.7508 2.9H76.7908C77.0041 2.9 77.1908 2.98 77.3508 3.14C77.5241 3.28667 77.6108 3.46667 77.6108 3.68C77.6108 3.89333 77.5308 4.08 77.3708 4.24C77.2108 4.38667 77.0174 4.46 76.7908 4.46H74.0708V16.4C74.0708 16.6133 73.9908 16.8 73.8308 16.96C73.6708 17.12 73.4841 17.2 73.2708 17.2C73.0574 17.2 72.8708 17.12 72.7108 16.96C72.5508 16.8 72.4708 16.6133 72.4708 16.4ZM83.3787 8.08H85.6787C87.0654 8.08 88.1587 8.46667 88.9587 9.24C89.7721 10.0133 90.1787 11.1 90.1787 12.5C90.1787 13.7933 89.8121 14.8667 89.0787 15.72C88.3587 16.5733 87.2254 17 85.6787 17H82.7387C82.4854 17 82.2587 16.9067 82.0587 16.72C81.8721 16.5333 81.7787 16.3067 81.7787 16.04V3.54C81.7787 3.31333 81.8587 3.12 82.0187 2.96C82.1787 2.78667 82.3654 2.7 82.5787 2.7C82.7921 2.7 82.9787 2.78667 83.1387 2.96C83.2987 3.12 83.3787 3.31333 83.3787 3.54V8.08ZM83.3787 9.64V15.44H85.6787C87.6121 15.44 88.5787 14.4667 88.5787 12.52C88.5787 10.6 87.6121 9.64 85.6787 9.64H83.3787ZM91.7387 16.4V3.5C91.7387 3.28667 91.8187 3.1 91.9787 2.94C92.1387 2.78 92.3254 2.7 92.5387 2.7C92.7521 2.7 92.9387 2.78 93.0987 2.94C93.2587 3.1 93.3387 3.28667 93.3387 3.5V16.4C93.3387 16.6133 93.2587 16.8 93.0987 16.96C92.9387 17.12 92.7521 17.2 92.5387 17.2C92.3254 17.2 92.1387 17.12 91.9787 16.96C91.8187 16.8 91.7387 16.6133 91.7387 16.4Z" fill="black"/>
<circle opacity="0.3" cx="3" cy="56" r="3" fill="#1D2E5B"/>
<path opacity="0.6" d="M54.48 47.54V60.42C54.48 60.6333 54.4 60.82 54.24 60.98C54.0933 61.1267 53.9133 61.2 53.7 61.2C53.4733 61.2 53.28 61.1267 53.12 60.98C52.96 60.82 52.88 60.6333 52.88 60.42V50.68L49.66 57.56C49.5 57.88 49.24 58.04 48.88 58.04C48.5333 58.04 48.28 57.88 48.12 57.56L44.9 50.68V60.42C44.9 60.6333 44.8133 60.82 44.64 60.98C44.48 61.1267 44.2867 61.2 44.06 61.2C43.8467 61.2 43.6667 61.1267 43.52 60.98C43.3733 60.82 43.3 60.6333 43.3 60.42V47.54C43.3 47.3 43.38 47.1 43.54 46.94C43.7 46.78 43.9 46.7 44.14 46.7C44.5267 46.7 44.8133 46.8733 45 47.22L48.9 55.58L52.8 47.2C52.9867 46.8667 53.2667 46.7 53.64 46.7C53.88 46.7 54.08 46.7867 54.24 46.96C54.4 47.12 54.48 47.3133 54.48 47.54ZM60.7486 57.82L59.9086 60.6C59.8553 60.7733 59.7486 60.9133 59.5886 61.02C59.4419 61.14 59.2953 61.2 59.1486 61.2C58.9086 61.2 58.7086 61.1267 58.5486 60.98C58.3886 60.8333 58.3086 60.64 58.3086 60.4C58.3086 60.28 58.3219 60.18 58.3486 60.1L62.2486 47.76C62.4619 47.0533 62.8086 46.7 63.2886 46.7C63.7686 46.7 64.1219 47.0533 64.3486 47.76L68.2486 60.1C68.2753 60.18 68.2886 60.28 68.2886 60.4C68.2886 60.64 68.2086 60.8333 68.0486 60.98C67.8886 61.1267 67.6886 61.2 67.4486 61.2C67.2886 61.2 67.1286 61.14 66.9686 61.02C66.8219 60.9133 66.7219 60.7733 66.6686 60.6L65.8086 57.82H60.7486ZM63.2886 49.48L61.2286 56.26H65.3486L63.2886 49.48ZM76.1452 55.8H73.8452V60.36C73.8452 60.5867 73.7652 60.7867 73.6052 60.96C73.4452 61.12 73.2585 61.2 73.0452 61.2C72.8318 61.2 72.6452 61.12 72.4852 60.96C72.3252 60.7867 72.2452 60.5867 72.2452 60.36V47.86C72.2452 47.6067 72.3385 47.3867 72.5252 47.2C72.7252 47 72.9518 46.9 73.2052 46.9H76.1452C77.6918 46.9 78.8252 47.3267 79.5452 48.18C80.2785 49.02 80.6452 50.0867 80.6452 51.38C80.6452 52.78 80.2385 53.8667 79.4252 54.64C78.6252 55.4133 77.5318 55.8 76.1452 55.8ZM73.8452 48.46V54.24H76.1452C78.0785 54.24 79.0452 53.28 79.0452 51.36C79.0452 49.4267 78.0785 48.46 76.1452 48.46H73.8452ZM97.1106 47.52V60.2C97.1106 60.4133 97.0306 60.6 96.8706 60.76C96.7106 60.92 96.524 61 96.3106 61H85.6506C85.4373 61 85.2506 60.92 85.0906 60.76C84.9306 60.6 84.8506 60.4133 84.8506 60.2V47.52C84.8506 47.2933 84.9306 47.1 85.0906 46.94C85.2506 46.78 85.4373 46.7 85.6506 46.7C85.864 46.7 86.0506 46.78 86.2106 46.94C86.3706 47.1 86.4506 47.2933 86.4506 47.52V59.44H90.1706V47.5C90.1706 47.2867 90.2506 47.1 90.4106 46.94C90.5706 46.78 90.7573 46.7 90.9706 46.7C91.184 46.7 91.3706 46.78 91.5306 46.94C91.6906 47.1 91.7706 47.2867 91.7706 47.5V59.44H95.5106V47.52C95.5106 47.3067 95.5906 47.12 95.7506 46.96C95.9106 46.7867 96.0973 46.7 96.3106 46.7C96.524 46.7 96.7106 46.78 96.8706 46.94C97.0306 47.1 97.1106 47.2933 97.1106 47.52ZM105.946 55.8H103.646V60.36C103.646 60.5867 103.566 60.7867 103.406 60.96C103.246 61.12 103.059 61.2 102.846 61.2C102.633 61.2 102.446 61.12 102.286 60.96C102.126 60.7867 102.046 60.5867 102.046 60.36V47.86C102.046 47.6067 102.139 47.3867 102.326 47.2C102.526 47 102.753 46.9 103.006 46.9H105.946C107.493 46.9 108.626 47.3267 109.346 48.18C110.079 49.02 110.446 50.0867 110.446 51.38C110.446 52.78 110.039 53.8667 109.226 54.64C108.426 55.4133 107.333 55.8 105.946 55.8ZM103.646 48.46V54.24H105.946C107.879 54.24 108.846 53.28 108.846 51.36C108.846 49.4267 107.879 48.46 105.946 48.46H103.646ZM122.711 47.72L119.471 56.44C119.245 57.1067 119.051 57.6333 118.891 58.02C118.745 58.3933 118.545 58.8067 118.291 59.26C118.038 59.7133 117.778 60.06 117.511 60.3C117.245 60.5267 116.911 60.7267 116.511 60.9C116.111 61.06 115.658 61.1467 115.151 61.16C114.925 61.16 114.731 61.0867 114.571 60.94C114.425 60.7933 114.351 60.6133 114.351 60.4C114.351 60.2133 114.418 60.0467 114.551 59.9C114.685 59.7533 114.865 59.6733 115.091 59.66C115.718 59.6333 116.198 59.48 116.531 59.2C116.878 58.9067 117.205 58.3933 117.511 57.66L113.731 47.7C113.705 47.66 113.691 47.5667 113.691 47.42C113.691 47.2067 113.765 47.0333 113.911 46.9C114.058 46.7667 114.245 46.7 114.471 46.7C114.818 46.7 115.051 46.8733 115.171 47.22L118.271 55.58L121.251 47.22C121.371 46.8733 121.611 46.7 121.971 46.7C122.185 46.7 122.365 46.7733 122.511 46.92C122.671 47.0667 122.751 47.2533 122.751 47.48C122.751 47.5867 122.738 47.6667 122.711 47.72ZM129.7 60.4V48.46H126.98C126.753 48.46 126.56 48.3867 126.4 48.24C126.253 48.08 126.18 47.8933 126.18 47.68C126.18 47.4933 126.26 47.32 126.42 47.16C126.58 46.9867 126.766 46.9 126.98 46.9H134.02C134.233 46.9 134.42 46.98 134.58 47.14C134.753 47.2867 134.84 47.4667 134.84 47.68C134.84 47.8933 134.76 48.08 134.6 48.24C134.44 48.3867 134.246 48.46 134.02 48.46H131.3V60.4C131.3 60.6133 131.22 60.8 131.06 60.96C130.9 61.12 130.713 61.2 130.5 61.2C130.286 61.2 130.1 61.12 129.94 60.96C129.78 60.8 129.7 60.6133 129.7 60.4Z" fill="black"/>
<circle opacity="0.3" cx="3" cy="100" r="3" fill="#1D2E5B"/>
<path opacity="0.6" d="M47.36 99.8H45.06V104.36C45.06 104.587 44.98 104.787 44.82 104.96C44.66 105.12 44.4733 105.2 44.26 105.2C44.0467 105.2 43.86 105.12 43.7 104.96C43.54 104.787 43.46 104.587 43.46 104.36V91.86C43.46 91.6067 43.5533 91.3867 43.74 91.2C43.94 91 44.1667 90.9 44.42 90.9H47.36C48.9067 90.9 50.04 91.3267 50.76 92.18C51.4933 93.02 51.86 94.0867 51.86 95.38C51.86 96.78 51.4533 97.8667 50.64 98.64C49.84 99.4133 48.7467 99.8 47.36 99.8ZM45.06 92.46V98.24H47.36C49.2933 98.24 50.26 97.28 50.26 95.36C50.26 93.4267 49.2933 92.46 47.36 92.46H45.06ZM56.5298 101.82L55.6898 104.6C55.6365 104.773 55.5298 104.913 55.3698 105.02C55.2232 105.14 55.0765 105.2 54.9298 105.2C54.6898 105.2 54.4898 105.127 54.3298 104.98C54.1698 104.833 54.0898 104.64 54.0898 104.4C54.0898 104.28 54.1032 104.18 54.1298 104.1L58.0298 91.76C58.2432 91.0533 58.5898 90.7 59.0698 90.7C59.5498 90.7 59.9032 91.0533 60.1298 91.76L64.0298 104.1C64.0565 104.18 64.0698 104.28 64.0698 104.4C64.0698 104.64 63.9898 104.833 63.8298 104.98C63.6698 105.127 63.4698 105.2 63.2298 105.2C63.0698 105.2 62.9098 105.14 62.7498 105.02C62.6032 104.913 62.5032 104.773 62.4498 104.6L61.5898 101.82H56.5298ZM59.0698 93.48L57.0098 100.26H61.1298L59.0698 93.48ZM75.7394 101.12C75.7394 102.253 75.3394 103.22 74.5394 104.02C73.7394 104.807 72.6927 105.2 71.3994 105.2C70.5194 105.2 69.6394 105.047 68.7594 104.74C67.8927 104.433 67.4594 104.027 67.4594 103.52C67.4594 103.32 67.526 103.153 67.6594 103.02C67.806 102.873 67.9727 102.8 68.1594 102.8C68.2527 102.8 68.386 102.847 68.5594 102.94C69.4927 103.487 70.366 103.76 71.1794 103.76C72.1394 103.76 72.8727 103.52 73.3794 103.04C73.8994 102.547 74.1594 101.913 74.1594 101.14C74.1594 99.5533 73.006 98.7 70.6994 98.58C70.4994 98.5667 70.3394 98.5533 70.2194 98.54C70.1127 98.5133 69.9994 98.44 69.8794 98.32C69.7727 98.2 69.7194 98.0333 69.7194 97.82C69.7194 97.7267 69.726 97.6467 69.7394 97.58C69.766 97.5 69.786 97.44 69.7994 97.4C69.826 97.3467 69.866 97.3 69.9194 97.26C69.9727 97.22 70.0127 97.1933 70.0394 97.18C70.0794 97.1533 70.1327 97.1333 70.1994 97.12C70.266 97.1067 70.3127 97.1 70.3394 97.1C70.3794 97.0867 70.4327 97.08 70.4994 97.08C70.5794 97.0667 70.626 97.06 70.6394 97.06C71.546 96.98 72.306 96.74 72.9194 96.34C73.546 95.9267 73.8594 95.3067 73.8594 94.48C73.8594 93.8267 73.6594 93.2733 73.2594 92.82C72.8594 92.3667 72.2327 92.14 71.3794 92.14C70.6994 92.14 70.0927 92.2733 69.5594 92.54C69.4527 92.5933 69.3127 92.6733 69.1394 92.78C68.9794 92.8733 68.8327 92.9533 68.6994 93.02C68.5794 93.0733 68.466 93.1 68.3594 93.1C68.186 93.1 68.026 93.04 67.8794 92.92C67.746 92.7867 67.6794 92.62 67.6794 92.42C67.6794 91.94 68.0927 91.5333 68.9194 91.2C69.7594 90.8667 70.6127 90.7 71.4794 90.7C72.706 90.7 73.6594 91.08 74.3394 91.84C75.0327 92.6 75.3794 93.4867 75.3794 94.5C75.3794 95.98 74.586 97.06 72.9994 97.74C74.826 98.3533 75.7394 99.48 75.7394 101.12ZM81.6264 96.9H83.9264C84.6464 96.9 85.2797 96.6933 85.8264 96.28C86.3864 95.8667 86.6664 95.28 86.6664 94.52C86.6664 93.92 86.4731 93.4267 86.0864 93.04C85.7131 92.6533 85.1064 92.46 84.2664 92.46H81.6264V96.9ZM83.9864 98.46H81.6264V103.44H84.0664C85.0397 103.44 85.7797 103.227 86.2864 102.8C86.7931 102.36 87.0464 101.767 87.0464 101.02C87.0464 100.207 86.7597 99.58 86.1864 99.14C85.6264 98.6867 84.8931 98.46 83.9864 98.46ZM84.2864 105H80.9864C80.7197 105 80.4931 104.907 80.3064 104.72C80.1197 104.533 80.0264 104.307 80.0264 104.04V91.86C80.0264 91.5933 80.1197 91.3667 80.3064 91.18C80.4931 90.9933 80.7197 90.9 80.9864 90.9H84.3664C85.5931 90.9 86.5464 91.26 87.2264 91.98C87.9197 92.6867 88.2664 93.54 88.2664 94.54C88.2664 95.34 88.0397 95.9867 87.5864 96.48C87.1464 96.9733 86.5131 97.3933 85.6864 97.74C86.1131 97.8733 86.4597 98.0067 86.7264 98.14C87.0064 98.26 87.3131 98.44 87.6464 98.68C87.9797 98.92 88.2264 99.2333 88.3864 99.62C88.5597 100.007 88.6464 100.467 88.6464 101C88.6464 102.16 88.2464 103.12 87.4464 103.88C86.6597 104.627 85.6064 105 84.2864 105ZM102.126 104.38C102.113 104.593 102.026 104.78 101.866 104.94C101.72 105.087 101.54 105.16 101.326 105.16C101.1 105.16 100.906 105.087 100.746 104.94C100.6 104.793 100.526 104.607 100.526 104.38V92.44H96.2463L95.6263 101.62C95.4663 103.98 94.6329 105.16 93.1263 105.16C92.7929 105.16 92.5329 105.147 92.3463 105.12C92.1729 105.107 92.0063 105.04 91.8463 104.92C91.6863 104.787 91.6063 104.6 91.6063 104.36C91.6063 104.093 91.6729 103.893 91.8063 103.76C91.9529 103.613 92.1329 103.54 92.3463 103.54C92.4263 103.54 92.5129 103.553 92.6063 103.58C92.6996 103.593 92.7996 103.6 92.9063 103.6C93.5729 103.6 93.9529 102.98 94.0462 101.74L94.7663 91.66C94.7929 91.3933 94.8796 91.2 95.0263 91.08C95.1863 90.9467 95.3529 90.88 95.5263 90.88H101.326C101.54 90.88 101.726 90.96 101.886 91.12C102.046 91.2667 102.126 91.4467 102.126 91.66V104.38ZM114.433 104.18C114.433 104.407 114.353 104.6 114.193 104.76C114.047 104.92 113.86 105 113.633 105H108.333C107.493 105 107.073 104.687 107.073 104.06V91.84C107.073 91.6 107.16 91.3867 107.333 91.2C107.52 91 107.747 90.9 108.013 90.9H113.433C113.66 90.9 113.847 90.98 113.993 91.14C114.153 91.2867 114.233 91.4733 114.233 91.7C114.233 91.9133 114.153 92.0933 113.993 92.24C113.847 92.3867 113.66 92.46 113.433 92.46H108.673V97.14H113.053C113.253 97.14 113.433 97.22 113.593 97.38C113.753 97.5267 113.833 97.7067 113.833 97.92C113.833 98.1333 113.753 98.32 113.593 98.48C113.447 98.6267 113.267 98.7 113.053 98.7H108.673V103.44H113.633C113.847 103.44 114.033 103.513 114.193 103.66C114.353 103.807 114.433 103.98 114.433 104.18ZM124.946 97.7V91.54C124.946 91.3133 125.026 91.12 125.186 90.96C125.346 90.7867 125.533 90.7 125.746 90.7C125.959 90.7 126.146 90.7867 126.306 90.96C126.466 91.12 126.546 91.3133 126.546 91.54V104.36C126.546 104.587 126.466 104.787 126.306 104.96C126.146 105.12 125.959 105.2 125.746 105.2C125.533 105.2 125.346 105.12 125.186 104.96C125.026 104.787 124.946 104.587 124.946 104.36V99.28C124.159 99.6267 123.293 99.8 122.346 99.8C121.013 99.8 119.979 99.42 119.246 98.66C118.513 97.8867 118.146 96.7933 118.146 95.38V91.54C118.146 91.3133 118.226 91.12 118.386 90.96C118.546 90.7867 118.733 90.7 118.946 90.7C119.159 90.7 119.346 90.7867 119.506 90.96C119.666 91.12 119.746 91.3133 119.746 91.54V95.36C119.746 96.3867 119.966 97.1267 120.406 97.58C120.859 98.02 121.553 98.24 122.486 98.24C123.446 98.24 124.266 98.06 124.946 97.7ZM138.843 104.18C138.843 104.407 138.763 104.6 138.603 104.76C138.457 104.92 138.27 105 138.043 105H132.743C131.903 105 131.483 104.687 131.483 104.06V91.84C131.483 91.6 131.57 91.3867 131.743 91.2C131.93 91 132.157 90.9 132.423 90.9H137.843C138.07 90.9 138.257 90.98 138.403 91.14C138.563 91.2867 138.643 91.4733 138.643 91.7C138.643 91.9133 138.563 92.0933 138.403 92.24C138.257 92.3867 138.07 92.46 137.843 92.46H133.083V97.14H137.463C137.663 97.14 137.843 97.22 138.003 97.38C138.163 97.5267 138.243 97.7067 138.243 97.92C138.243 98.1333 138.163 98.32 138.003 98.48C137.857 98.6267 137.677 98.7 137.463 98.7H133.083V103.44H138.043C138.257 103.44 138.443 103.513 138.603 103.66C138.763 103.807 138.843 103.98 138.843 104.18ZM151.616 104.38C151.616 104.607 151.536 104.8 151.376 104.96C151.216 105.12 151.029 105.2 150.816 105.2C150.603 105.2 150.416 105.12 150.256 104.96C150.096 104.787 150.016 104.593 150.016 104.38V98.72H144.556V104.38C144.556 104.607 144.476 104.8 144.316 104.96C144.156 105.12 143.969 105.2 143.756 105.2C143.543 105.2 143.356 105.12 143.196 104.96C143.036 104.8 142.956 104.607 142.956 104.38V91.5C142.956 91.2867 143.036 91.1 143.196 90.94C143.356 90.78 143.543 90.7 143.756 90.7C143.969 90.7 144.156 90.78 144.316 90.94C144.476 91.1 144.556 91.2867 144.556 91.5V97.16H150.016V91.5C150.016 91.2867 150.096 91.1 150.256 90.94C150.416 90.78 150.603 90.7 150.816 90.7C151.029 90.7 151.216 90.78 151.376 90.94C151.536 91.1 151.616 91.2867 151.616 91.5V104.38ZM157.438 105.2C157.184 105.2 156.971 105.113 156.798 104.94C156.638 104.767 156.558 104.56 156.558 104.32V91.52C156.558 91.2933 156.631 91.1 156.778 90.94C156.938 90.78 157.124 90.7 157.338 90.7C157.551 90.7 157.738 90.7867 157.898 90.96C158.071 91.12 158.158 91.3067 158.158 91.52V101.72L163.718 91.18C163.891 90.86 164.171 90.7 164.558 90.7C164.811 90.7 165.018 90.7867 165.178 90.96C165.338 91.12 165.418 91.3267 165.418 91.58V104.38C165.418 104.607 165.338 104.8 165.178 104.96C165.031 105.12 164.851 105.2 164.638 105.2C164.411 105.2 164.218 105.12 164.058 104.96C163.898 104.8 163.818 104.607 163.818 104.38V94.18L158.258 104.74C158.084 105.047 157.811 105.2 157.438 105.2ZM170.275 94.9C170.275 93.7667 170.622 92.8133 171.315 92.04C172.008 91.2667 173.115 90.88 174.635 90.88H177.715C177.968 90.88 178.182 90.9733 178.355 91.16C178.542 91.3467 178.635 91.5733 178.635 91.84V104.36C178.635 104.587 178.555 104.787 178.395 104.96C178.248 105.12 178.068 105.2 177.855 105.2C177.642 105.2 177.448 105.12 177.275 104.96C177.115 104.787 177.035 104.587 177.035 104.36V98.8H175.115L171.595 104.8C171.448 105.053 171.228 105.18 170.935 105.18C170.762 105.18 170.575 105.107 170.375 104.96C170.175 104.8 170.075 104.62 170.075 104.42C170.075 104.247 170.108 104.093 170.175 103.96L173.375 98.7C172.402 98.5 171.642 98.08 171.095 97.44C170.548 96.7867 170.275 95.94 170.275 94.9ZM171.875 94.9C171.875 95.6733 172.108 96.26 172.575 96.66C173.042 97.06 173.715 97.26 174.595 97.26H177.035V92.44H174.715C172.822 92.44 171.875 93.26 171.875 94.9Z" fill="black"/>
</svg>
