<svg width="44" height="44" viewBox="0 0 44 44" fill="none" xmlns="http://www.w3.org/2000/svg">
<circle cx="21.5" cy="21.5" r="21.5" fill="white"/>
<path opacity="0.15" d="M27.4297 30.25C26.6123 30.25 25.8133 30.0182 25.1336 29.5838C24.454 29.1494 23.9243 28.532 23.6115 27.8097C23.2987 27.0873 23.2168 26.2925 23.3763 25.5257C23.5358 24.7588 23.9294 24.0544 24.5073 23.5016C25.0853 22.9487 25.8217 22.5722 26.6234 22.4197C27.4251 22.2672 28.2561 22.3455 29.0112 22.6447C29.7664 22.9439 30.4119 23.4506 30.866 24.1006C31.3201 24.7507 31.5625 25.515 31.5625 26.2969C31.5613 27.345 31.1255 28.3498 30.3507 29.0909C29.5759 29.832 28.5254 30.2489 27.4297 30.25ZM27.4297 23.7188C26.8966 23.7188 26.3755 23.87 25.9323 24.1532C25.489 24.4365 25.1435 24.8392 24.9395 25.3103C24.7355 25.7814 24.6822 26.2997 24.7862 26.7998C24.8902 27.3 25.1469 27.7593 25.5238 28.1199C25.9008 28.4804 26.381 28.726 26.9039 28.8255C27.4267 28.9249 27.9686 28.8739 28.4611 28.6788C28.9536 28.4836 29.3746 28.1532 29.6708 27.7292C29.9669 27.3052 30.125 26.8068 30.125 26.2969C30.1242 25.6134 29.8399 24.9581 29.3346 24.4747C28.8294 23.9914 28.1443 23.7195 27.4297 23.7188Z" fill="#1D2E5B"/>
<path opacity="0.15" d="M15.5703 30.25C14.7529 30.25 13.9539 30.0182 13.2742 29.5838C12.5946 29.1494 12.0649 28.532 11.7521 27.8097C11.4393 27.0873 11.3574 26.2925 11.5169 25.5257C11.6764 24.7588 12.07 24.0544 12.648 23.5016C13.226 22.9487 13.9624 22.5722 14.764 22.4197C15.5657 22.2672 16.3967 22.3455 17.1519 22.6447C17.907 22.9439 18.5525 23.4506 19.0066 24.1006C19.4607 24.7507 19.7031 25.515 19.7031 26.2969C19.7019 27.345 19.2661 28.3498 18.4913 29.0909C17.7165 29.832 16.666 30.2489 15.5703 30.25ZM15.5703 23.7188C15.0372 23.7188 14.5161 23.87 14.0729 24.1532C13.6296 24.4365 13.2842 24.8392 13.0802 25.3103C12.8762 25.7814 12.8228 26.2997 12.9268 26.7998C13.0308 27.3 13.2875 27.7593 13.6644 28.1199C14.0414 28.4804 14.5216 28.726 15.0445 28.8255C15.5673 28.9249 16.1093 28.8739 16.6018 28.6788C17.0943 28.4836 17.5152 28.1532 17.8114 27.7292C18.1076 27.3052 18.2656 26.8068 18.2656 26.2969C18.2648 25.6134 17.9806 24.9581 17.4753 24.4747C16.97 23.9914 16.2849 23.7195 15.5703 23.7188Z" fill="#1D2E5B"/>
<path opacity="0.15" d="M24.375 16.5C24.5644 16.5006 24.752 16.4653 24.927 16.3962C25.102 16.327 25.2609 16.2254 25.3946 16.0971C25.5282 15.9689 25.634 15.8165 25.7057 15.6489C25.7775 15.4813 25.8138 15.3018 25.8125 15.1207C25.8146 14.9405 25.7791 14.7617 25.7081 14.5948C25.6372 14.4278 25.5321 14.2761 25.3991 14.1485C25.2661 14.0209 25.1078 13.9199 24.9335 13.8515C24.7592 13.783 24.5724 13.7485 24.384 13.75C24.1952 13.7494 24.0082 13.7844 23.8336 13.853C23.6589 13.9216 23.5001 14.0224 23.3662 14.1497C23.2323 14.277 23.126 14.4282 23.0532 14.5948C22.9804 14.7614 22.9426 14.9401 22.942 15.1207C22.9414 15.3013 22.978 15.4802 23.0497 15.6472C23.1214 15.8142 23.2268 15.9661 23.3599 16.0942C23.4929 16.2223 23.6511 16.3241 23.8253 16.3937C23.9994 16.4633 24.1863 16.4994 24.375 16.5Z" fill="#1D2E5B"/>
<path opacity="0.15" d="M26.511 19.2501H24.5453C24.513 19.2501 24.4814 19.2418 24.4536 19.2261C24.4259 19.2103 24.4031 19.1878 24.3876 19.1607L22.9618 16.6612C22.8613 16.4755 22.7165 16.3149 22.5392 16.1927C22.3618 16.0704 22.1568 15.9898 21.9408 15.9573C21.7248 15.9249 21.5039 15.9416 21.2959 16.006C21.0879 16.0704 20.8986 16.1808 20.7435 16.3282L17.6053 19.3532C17.3416 19.6106 17.192 19.9554 17.1875 20.3157C17.1875 21.0634 17.7535 21.3298 18.0186 21.4801C19.2988 22.1857 20.2004 22.7018 20.695 22.9884C20.7213 23.0037 20.743 23.0252 20.7581 23.0508C20.7732 23.0765 20.7812 23.1054 20.7813 23.1349V26.1049C20.7813 26.4748 21.0786 26.7924 21.4654 26.8109C21.5625 26.8153 21.6596 26.8009 21.7507 26.7685C21.8418 26.736 21.9251 26.6863 21.9955 26.6222C22.0659 26.5581 22.122 26.4809 22.1604 26.3955C22.1988 26.3101 22.2186 26.2181 22.2188 26.1251V22.4298C22.2188 22.3206 22.1917 22.213 22.1397 22.1159C22.0877 22.0188 22.0122 21.9349 21.9196 21.8712L20.2575 20.7278C20.2366 20.7135 20.2192 20.6951 20.2064 20.6738C20.1935 20.6526 20.1856 20.6289 20.1832 20.6045C20.1807 20.5801 20.1837 20.5555 20.192 20.5322C20.2004 20.509 20.2138 20.4878 20.2314 20.47L22.1181 18.5454C22.1375 18.5256 22.1614 18.5104 22.1881 18.5012C22.2147 18.4919 22.2432 18.4888 22.2714 18.4921C22.2995 18.4955 22.3264 18.5051 22.3499 18.5202C22.3734 18.5354 22.3928 18.5556 22.4065 18.5793L23.3867 20.2714C23.449 20.3787 23.5402 20.4681 23.6508 20.5302C23.7614 20.5924 23.8873 20.6252 24.0156 20.6251H26.5313C26.6286 20.6252 26.725 20.6064 26.8145 20.5698C26.9041 20.5332 26.9849 20.4795 27.0521 20.4122C27.1193 20.3448 27.1715 20.265 27.2055 20.1778C27.2396 20.0905 27.2547 19.9975 27.25 19.9045C27.2311 19.5345 26.8978 19.2501 26.511 19.2501Z" fill="#1D2E5B"/>
</svg>
