<svg width="44" height="44" viewBox="0 0 44 44" fill="none" xmlns="http://www.w3.org/2000/svg">
<circle cx="21.5" cy="21.5" r="21.5" fill="white"/>
<g clip-path="url(#clip0)">
<path d="M28.5347 12.1804C27.7301 12.3608 26.9218 12.5421 26.6212 13.0388L24.2941 17.4124L11.7992 20.2145L11.2929 21.612L20.8544 22.4648L19.2321 26.251L15.606 27.0642L14.6956 28.5523L17.3116 28.8202L17.6099 30.0372C17.7435 30.4686 18.2126 30.7566 18.613 30.6668L19.8217 30.3958L21.2228 32.6493L22.1332 31.1613L21.2383 27.5103L23.8637 24.3537L28.8731 32.6469L29.8832 31.5657L26.8005 18.9888L29.6314 14.9316C29.9358 14.434 29.7373 13.6239 29.5378 12.8101C29.439 12.4069 28.9351 12.0906 28.5347 12.1804Z" fill="#1D2E5B"/>
</g>
<defs>
<clipPath id="clip0">
<rect width="23" height="22" fill="white" transform="translate(10 11)"/>
</clipPath>
</defs>
</svg>
