<svg width="44" height="44" viewBox="0 0 44 44" fill="none" xmlns="http://www.w3.org/2000/svg">
<circle cx="21.5" cy="21.5" r="21.5" fill="white"/>
<path d="M26.2917 16.5C27.3502 16.5 28.2083 15.6792 28.2083 14.6666C28.2083 13.6541 27.3502 12.8333 26.2917 12.8333C25.2331 12.8333 24.375 13.6541 24.375 14.6666C24.375 15.6792 25.2331 16.5 26.2917 16.5Z" fill="#1D2E5B"/>
<path d="M25.1196 21.0549C25.3396 21.3685 25.6552 21.6097 26.0234 21.7458C26.3917 21.8819 26.7949 21.9063 27.1781 21.8157L30.356 21.0558L29.8931 19.2775L26.7153 20.0374L25.3937 18.1426C25.1114 17.738 24.6732 17.4566 24.1747 17.3598L20.489 16.654C20.0766 16.5748 19.6485 16.6277 19.2708 16.8045C18.893 16.9813 18.5866 17.2721 18.3988 17.6321L16.8099 20.6717L18.5244 21.4921L20.1133 18.4516L21.9983 18.8127L17.1243 26.5833H12.875V28.4166H17.1243C17.7932 28.4166 18.4228 28.0756 18.7678 27.5266L20.6059 24.5969L25.5595 25.5447L27.2998 30.5396L29.1168 29.9594L27.3775 24.9654C27.2701 24.6588 27.0802 24.3847 26.8268 24.1706C26.5734 23.9566 26.2656 23.8102 25.9342 23.7462L23.0218 23.1898L24.72 20.482L25.1196 21.0549Z" fill="#1D2E5B"/>
</svg>
